<svg xmlns="http://www.w3.org/2000/svg" viewBox="0 0 1476.1 424.9"><defs><style>.cls-1{fill:#ff6900;}</style></defs><title>logo</title><g id="Capa_1" data-name="Capa 1"><path class="cls-1" d="M635.9,118.45q97.68,0,97.91,104.21V329.12q0,18.9-18.91,18.91h-11Q685,348,685,329.12V219.51q0-28.57-13.05-42.31t-40.07-13.73q-26.57,0-38,13.39t-11.48,42.65V329.12q0,18.9-18.91,18.91h-10.8q-18.9,0-18.91-18.91V219.51q0-29.25-11.59-42.65t-37.93-13.39q-27,0-40.17,13.73t-13.17,42.31V329.12q0,18.9-18.91,18.91h-10.8q-18.9,0-18.91-18.91V222.66q0-104.2,97.46-104.21,57.62,0,78.1,37.36,20.51-37.35,78.12-37.36"/><path class="cls-1" d="M895.42,348q-53.34,0-82.49-30.39t-29.15-86.21q0-56,29.15-86.54t82.38-30.5q53.24,0,82.49,30.5t29.26,86.54q0,55.59-29.26,86.09T895.42,348m0-44.79q31.27,0,46.7-17.67t15.42-54.13q0-36.91-15.31-54.47t-46.82-17.56q-31.51,0-46.93,17.56t-15.42,54.47q0,36.69,15.42,54.24t46.94,17.56"/><path class="cls-1" d="M1196.57,144q0,18.9-18.68,18.91h-71.58v99.93q0,20.71,8.78,29.71t29.26,9a115.67,115.67,0,0,0,18.46-1.69,105.31,105.31,0,0,1,14.41-1.69q10.8,0,14.85,3.71t4,12.27v7.2q0,17.34-14.86,20.48-26.79,7.43-49.63,6t-39.39-10.13q-16.54-8.65-26-27.69t-9.45-47.15V84.11q0-18.9,18.91-18.91h11.7q18.9,0,18.91,18.91v34.21h71.58q18.9,0,18.68,18.68v7Z"/><path class="cls-1" d="M1260.49,348q-18.9,0-18.91-15.48V178.86q0-15.48,18.91-15.3h11.93q18.9,0,18.91,15.3V332.55q0,15.48-18.91,15.48Z"/><path class="cls-1" d="M1378.43,348q-18.9,0-18.91-15.48V178.86q0-15.48,18.91-15.3h11.93q18.9,0,18.91,15.3V332.55q0,15.48-18.91,15.48Z"/><path class="cls-1" d="M1283.19,98.63a13.47,13.47,0,1,1-13.47-13.47,13.47,13.47,0,0,1,13.47,13.47"/><path class="cls-1" d="M1385.31,48.28H1271.85a50.35,50.35,0,1,0,0,100.7h113.47a50.35,50.35,0,1,0,0-100.7m-115.59,84.39a34,34,0,1,1,34-34,34,34,0,0,1-34,34m117.72,0a34,34,0,1,1,34-34,34,34,0,0,1-34,34"/><path class="cls-1" d="M1400.92,98.63a13.47,13.47,0,1,1-13.47-13.47,13.47,13.47,0,0,1,13.47,13.47"/><path class="cls-1" d="M159.49,245.1c0,21,16.92,38.06,37.35,38.45,21,.4,39.31-16.35,39.32-38.31a38.34,38.34,0,1,0-76.67-.14"/><path class="cls-1" d="M199.53,43.71c3.35.3,6.7.54,10,.92,12.43,1.41,24,5.16,33.84,13.14,7.94,6.43,13.49,14.72,18.18,23.67,6.36,12.15,10.15,25.23,14.16,38.25q31.78,103.23,63.65,206.43a27.86,27.86,0,0,1,1.23,6.18c.58,8.39-3.45,14.19-11.79,15.07a111,111,0,0,1-23-.07c-8.26-.86-13.07-6.55-15.45-14.3q-7-22.87-14-45.76-25.78-84.17-51.58-168.33a83.75,83.75,0,0,0-8.64-20c-7.8-12.5-26.15-11.46-33.38-4.19a32.81,32.81,0,0,0-7.66,12.4c-3.95,11.36-7.73,22.79-11.26,34.29q-29.32,95.49-58.48,191c-3,9.87-9,14.82-19.31,15.41a142.28,142.28,0,0,1-17.4-.1c-10.36-.69-15.83-8.07-13.15-18.15,2.86-10.75,6.34-21.33,9.61-32q28.69-93.33,57.45-186.65c4.44-14.36,10.17-28.17,18.75-40.66,10.87-15.81,26.21-23.69,44.94-25.68,3.19-.34,6.39-.6,9.59-.89h3.65Z"/><path class="cls-1" d="M159.49,245.1a38.34,38.34,0,1,1,76.68.14c0,22-18.31,38.71-39.32,38.31-20.44-.39-37.37-17.49-37.36-38.45"/></g></svg>